# Blender 3.6.0
# www.blender.org
mtllib block.mtl
o Cube.001
v 0.450000 0.500000 -0.450000
v 0.500000 -0.450000 -0.450000
v 0.450000 0.450000 0.500000
v 0.450000 -0.450000 0.500000
v -0.450000 0.500000 -0.450000
v -0.500000 -0.450000 -0.450000
v -0.450000 0.450000 0.500000
v -0.450000 -0.450000 0.500000
v 0.450000 0.500000 0.450000
v 0.500000 -0.450000 0.450000
v -0.450000 0.500000 0.450000
v -0.500000 -0.450000 0.450000
v 0.500000 0.450000 -0.450000
v 0.500000 0.450000 0.450000
v -0.500000 0.450000 -0.450000
v -0.500000 0.450000 0.450000
v -0.450000 -0.450000 -0.500000
v -0.450000 -0.500000 0.450000
v -0.500000 0.500000 0.500000
v -0.450000 0.450000 -0.500000
v 0.450000 0.450000 -0.500000
v 0.450000 -0.450000 -0.500000
v 0.500000 0.500000 0.500000
v 0.450000 -0.500000 0.450000
v 0.500000 0.500000 -0.500000
v 0.450000 -0.500000 -0.450000
v -0.500000 0.500000 -0.500000
v -0.450000 -0.500000 -0.450000
v 0.500000 -0.500000 -0.500000
v -0.500000 -0.500000 -0.500000
v -0.500000 -0.500000 0.500000
v 0.500000 -0.500000 0.500000
vn -0.0000 -0.0000 1.0000
vn -1.0000 -0.0000 -0.0000
vn -0.0000 1.0000 -0.0000
vn -0.0000 -1.0000 -0.0000
vn 1.0000 -0.0000 -0.0000
vn -0.0000 -0.0000 -1.0000
vt 0.238138 0.616107
vt 0.322358 0.700327
vt 0.238138 0.700327
vt 0.238138 0.335374
vt 0.322358 0.419594
vt 0.238138 0.419594
vt 0.331716 0.522529
vt 0.415936 0.606749
vt 0.331716 0.606749
vt 0.144560 0.522529
vt 0.228780 0.606749
vt 0.144560 0.606749
vt 0.238138 0.522529
vt 0.322358 0.606749
vt 0.238138 0.606749
vt 0.238138 0.428952
vt 0.322358 0.513172
vt 0.238138 0.513172
vt 0.771256 0.648048
vt 0.865691 0.643078
vt 0.860720 0.648048
vt 0.860720 0.737513
vt 0.766285 0.742483
vt 0.771256 0.737513
vt 0.865691 0.742483
vt 0.766285 0.643078
vt 0.870661 0.638108
vt 0.865691 0.543673
vt 0.870661 0.548643
vt 0.965096 0.543673
vt 0.960125 0.548643
vt 0.960125 0.638108
vt 0.965096 0.643078
vt 0.771256 0.439298
vt 0.766285 0.344863
vt 0.771256 0.349833
vt 0.865691 0.344863
vt 0.860720 0.349833
vt 0.860720 0.439298
vt 0.766285 0.444268
vt 0.865691 0.444268
vt 0.771256 0.548643
vt 0.860720 0.548643
vt 0.860720 0.638108
vt 0.771256 0.638108
vt 0.766285 0.543673
vt 0.860720 0.538703
vt 0.771256 0.538703
vt 0.860720 0.449238
vt 0.771256 0.449238
vt 0.671851 0.548643
vt 0.761315 0.548643
vt 0.671851 0.638108
vt 0.666880 0.543673
vt 0.761315 0.638108
vt 0.666880 0.643078
vt 0.322358 0.616107
vt 0.322358 0.335374
vt 0.415936 0.522529
vt 0.228780 0.522529
vt 0.322358 0.522529
vt 0.322358 0.428952
s 0
usemtl Material.001
f 4/1/1 7/2/1 8/3/1
f 12/4/2 15/5/2 6/6/2
f 1/7/3 11/8/3 9/9/3
f 28/10/4 24/11/4 18/12/4
f 2/13/5 14/14/5 10/15/5
f 17/16/6 21/17/6 22/18/6
f 4/19/1 23/20/1 3/21/1
f 7/22/1 31/23/1 8/24/1
f 3/21/1 19/25/1 7/22/1
f 8/24/1 32/26/1 4/19/1
f 9/27/3 25/28/3 1/29/3
f 1/29/3 27/30/3 5/31/3
f 11/32/3 23/20/3 9/27/3
f 5/31/3 19/33/3 11/32/3
f 6/34/2 31/35/2 12/36/2
f 12/36/2 19/37/2 16/38/2
f 15/39/2 30/40/2 6/34/2
f 16/38/2 27/41/2 15/39/2
f 2/42/5 25/28/5 13/43/5
f 13/43/5 23/20/5 14/44/5
f 14/44/5 32/26/5 10/45/5
f 10/45/5 29/46/5 2/42/5
f 21/47/6 29/46/6 22/48/6
f 20/49/6 25/28/6 21/47/6
f 22/48/6 30/40/6 17/50/6
f 17/50/6 27/41/6 20/49/6
f 28/51/4 29/46/4 26/52/4
f 18/53/4 30/54/4 28/51/4
f 26/52/4 32/26/4 24/55/4
f 24/55/4 31/56/4 18/53/4
f 4/1/1 3/57/1 7/2/1
f 12/4/2 16/58/2 15/5/2
f 1/7/3 5/59/3 11/8/3
f 28/10/4 26/60/4 24/11/4
f 2/13/5 13/61/5 14/14/5
f 17/16/6 20/62/6 21/17/6
f 4/19/1 32/26/1 23/20/1
f 7/22/1 19/25/1 31/23/1
f 3/21/1 23/20/1 19/25/1
f 8/24/1 31/23/1 32/26/1
f 9/27/3 23/20/3 25/28/3
f 1/29/3 25/28/3 27/30/3
f 11/32/3 19/33/3 23/20/3
f 5/31/3 27/30/3 19/33/3
f 6/34/2 30/40/2 31/35/2
f 12/36/2 31/35/2 19/37/2
f 15/39/2 27/41/2 30/40/2
f 16/38/2 19/37/2 27/41/2
f 2/42/5 29/46/5 25/28/5
f 13/43/5 25/28/5 23/20/5
f 14/44/5 23/20/5 32/26/5
f 10/45/5 32/26/5 29/46/5
f 21/47/6 25/28/6 29/46/6
f 20/49/6 27/41/6 25/28/6
f 22/48/6 29/46/6 30/40/6
f 17/50/6 30/40/6 27/41/6
f 28/51/4 30/54/4 29/46/4
f 18/53/4 31/56/4 30/54/4
f 26/52/4 29/46/4 32/26/4
f 24/55/4 32/26/4 31/56/4
