# Blender 4.1.1
# www.blender.org
mtllib player.mtl
o 立方体
v 0.974103 -0.336096 1.543024
v 0.974103 0.336096 1.543024
v -0.583619 -0.336096 1.551300
v -0.583619 0.336096 1.551300
v 0.964611 -0.336096 0.158006
v 0.964611 0.336096 0.158006
v -0.593111 -0.336096 0.166282
v -0.593111 0.336096 0.166282
v -0.224205 -0.226834 0.133346
v -0.224205 0.226834 0.133346
v -0.569839 -0.226834 0.135183
v -0.569839 0.226834 0.135183
v -0.230270 -0.226834 -1.008240
v -0.230270 0.226834 -1.008240
v -0.575904 -0.226834 -1.006404
v -0.575904 0.226834 -1.006404
v -0.583110 -0.226834 1.477539
v -0.583110 0.226834 1.477539
v -0.996446 -0.226834 1.567801
v -0.996446 0.226834 1.567801
v -0.853639 -0.226834 0.238704
v -0.853639 0.226834 0.238704
v -1.266976 -0.226834 0.328966
v -1.266976 0.226834 0.328966
v 0.164922 -0.226834 0.131381
v 0.164922 0.226834 0.131381
v -0.180711 -0.226834 0.133217
v -0.180711 0.226834 0.133217
v 0.158857 -0.226834 -1.010206
v 0.158857 0.226834 -1.010206
v -0.186777 -0.226834 -1.008369
v -0.186777 0.226834 -1.008369
v 0.554050 -0.226834 0.129415
v 0.554050 0.226834 0.129415
v 0.208416 -0.226834 0.131251
v 0.208416 0.226834 0.131251
v 0.547985 -0.226834 -1.012171
v 0.547985 0.226834 -1.012171
v 0.202351 -0.226834 -1.010335
v 0.202351 0.226834 -1.010335
v 0.943177 -0.226834 0.127450
v 0.943177 0.226834 0.127450
v 0.597543 -0.226834 0.129286
v 0.597543 0.226834 0.129286
v 0.937112 -0.226834 -1.014137
v 0.937112 0.226834 -1.014137
v 0.591478 -0.226834 -1.012300
v 0.591478 0.226834 -1.012300
vn 0.0053 -0.0000 1.0000
vn -1.0000 -0.0000 0.0069
vn -0.0053 -0.0000 -1.0000
vn 1.0000 -0.0000 -0.0069
vn -0.0000 -1.0000 -0.0000
vn -0.0000 1.0000 -0.0000
vn -1.0000 -0.0000 0.0053
vn 1.0000 -0.0000 -0.0053
vn 0.2133 -0.0000 0.9770
vn -0.9770 -0.0000 0.2133
vn -0.2133 -0.0000 -0.9770
vn 0.9770 -0.0000 -0.2133
vt 0.178055 0.718931
vt 0.258891 0.531600
vt 0.258891 0.718931
vt 0.178055 0.531600
vt 0.258891 0.365037
vt 0.178055 0.365037
vt 0.258891 0.177705
vt 0.178055 0.177705
vt 0.258891 0.011142
vt 0.425454 0.364780
vt 0.425454 0.177449
vt 0.011492 0.364780
vt 0.833169 0.850908
vt 0.842356 0.782939
vt 0.871747 0.812331
vt 0.803778 0.821517
vt 0.745279 0.685863
vt 0.706701 0.724441
vt 0.715888 0.656471
vt 0.677310 0.695049
vt 0.618811 0.559395
vt 0.812964 0.559395
vt 0.842356 0.588787
vt 0.609625 0.821517
vt 0.567477 0.711985
vt 0.570079 0.637430
vt 0.606055 0.673407
vt 0.531501 0.676008
vt 0.462252 0.529603
vt 0.423674 0.568181
vt 0.426275 0.493627
vt 0.387698 0.532205
vt 0.318448 0.385800
vt 0.570079 0.421776
vt 0.534102 0.385800
vt 0.315847 0.676008
vt 0.455576 0.010646
vt 0.446390 0.078615
vt 0.416998 0.049224
vt 0.484967 0.040037
vt 0.543466 0.175692
vt 0.582044 0.137114
vt 0.572857 0.205083
vt 0.611435 0.166505
vt 0.669934 0.302159
vt 0.475781 0.302159
vt 0.446390 0.272768
vt 0.679120 0.040037
vt 0.252026 0.951254
vt 0.319995 0.960441
vt 0.290604 0.989832
vt 0.281418 0.921863
vt 0.417072 0.863364
vt 0.378494 0.824787
vt 0.446463 0.833973
vt 0.407885 0.795395
vt 0.543539 0.736897
vt 0.543539 0.931049
vt 0.514148 0.960441
vt 0.310809 0.698319
vt 0.547613 0.260709
vt 0.538427 0.328678
vt 0.509035 0.299287
vt 0.577004 0.290100
vt 0.635503 0.425754
vt 0.674081 0.387177
vt 0.664894 0.455146
vt 0.703472 0.416568
vt 0.761971 0.552222
vt 0.538427 0.522831
vt 0.567818 0.552222
vt 0.771157 0.290100
vt 0.178055 0.011142
vt 0.011492 0.177449
vt 0.580234 0.597973
vt 0.580234 0.792126
vt 0.279870 0.424377
vt 0.279870 0.640032
vt 0.708512 0.263582
vt 0.708512 0.069429
vt 0.504962 0.698319
vt 0.281417 0.727710
vt 0.800549 0.513644
vt 0.800549 0.319492
s 0
usemtl マテリアル
f 2/1/1 3/2/1 1/3/1
f 4/4/2 7/5/2 3/2/2
f 8/6/3 5/7/3 7/5/3
f 6/8/4 1/9/4 5/7/4
f 3/10/5 5/7/5 1/11/5
f 4/12/6 6/8/6 8/6/6
f 10/13/1 11/14/1 9/15/1
f 12/16/7 15/17/7 11/14/7
f 16/18/3 13/19/3 15/17/3
f 14/20/8 9/21/8 13/19/8
f 15/17/5 9/22/5 11/23/5
f 12/24/6 14/20/6 16/18/6
f 18/25/9 19/26/9 17/27/9
f 20/28/10 23/29/10 19/26/10
f 24/30/11 21/31/11 23/29/11
f 22/32/12 17/33/12 21/31/12
f 19/34/5 21/31/5 17/35/5
f 20/36/6 22/32/6 24/30/6
f 26/37/1 27/38/1 25/39/1
f 28/40/7 31/41/7 27/38/7
f 32/42/3 29/43/3 31/41/3
f 30/44/8 25/45/8 29/43/8
f 31/41/5 25/46/5 27/47/5
f 28/48/6 30/44/6 32/42/6
f 34/49/1 35/50/1 33/51/1
f 36/52/7 39/53/7 35/50/7
f 40/54/3 37/55/3 39/53/3
f 38/56/8 33/57/8 37/55/8
f 39/53/5 33/58/5 35/59/5
f 40/54/6 34/60/6 38/56/6
f 42/61/1 43/62/1 41/63/1
f 44/64/7 47/65/7 43/62/7
f 48/66/3 45/67/3 47/65/3
f 46/68/8 41/69/8 45/67/8
f 43/70/5 45/67/5 41/71/5
f 44/72/6 46/68/6 48/66/6
f 2/1/1 4/4/1 3/2/1
f 4/4/2 8/6/2 7/5/2
f 8/6/3 6/8/3 5/7/3
f 6/8/4 2/73/4 1/9/4
f 3/10/5 7/5/5 5/7/5
f 4/12/6 2/74/6 6/8/6
f 10/13/1 12/16/1 11/14/1
f 12/16/7 16/18/7 15/17/7
f 16/18/3 14/20/3 13/19/3
f 14/20/8 10/75/8 9/21/8
f 15/17/5 13/19/5 9/22/5
f 12/24/6 10/76/6 14/20/6
f 18/25/9 20/28/9 19/26/9
f 20/28/10 24/30/10 23/29/10
f 24/30/11 22/32/11 21/31/11
f 22/32/12 18/77/12 17/33/12
f 19/34/5 23/29/5 21/31/5
f 20/36/6 18/78/6 22/32/6
f 26/37/1 28/40/1 27/38/1
f 28/40/7 32/42/7 31/41/7
f 32/42/3 30/44/3 29/43/3
f 30/44/8 26/79/8 25/45/8
f 31/41/5 29/43/5 25/46/5
f 28/48/6 26/80/6 30/44/6
f 34/49/1 36/52/1 35/50/1
f 36/52/7 40/54/7 39/53/7
f 40/54/3 38/56/3 37/55/3
f 38/56/8 34/81/8 33/57/8
f 39/53/5 37/55/5 33/58/5
f 40/54/6 36/82/6 34/60/6
f 42/61/1 44/64/1 43/62/1
f 44/64/7 48/66/7 47/65/7
f 48/66/3 46/68/3 45/67/3
f 46/68/8 42/83/8 41/69/8
f 43/70/5 47/65/5 45/67/5
f 44/72/6 42/84/6 46/68/6
