# Blender 4.1.1
# www.blender.org
mtllib star.mtl
o 円
v -0.548197 -0.204961 -0.651757
v -0.548197 0.446411 -1.330867
v -0.548197 0.556521 -0.396334
v -0.548197 1.403678 0.013301
v -0.548197 0.548910 0.406809
v -0.548197 0.421110 1.339088
v -0.548197 -0.217276 0.647756
v -0.548197 -1.143418 0.814300
v -0.548197 -0.683194 -0.006474
v -0.548197 -1.127781 -0.835822
v 0.428267 0.446411 -1.330867
v 0.428267 -0.204961 -0.651757
v 0.428267 0.556521 -0.396334
v 0.428267 1.403678 0.013301
v 0.428267 0.548910 0.406809
v 0.428267 0.421110 1.339088
v 0.428267 -0.217276 0.647756
v 0.428267 -1.143418 0.814300
v 0.428267 -0.683194 -0.006474
v 0.428267 -1.127781 -0.835822
vn -1.0000 -0.0000 -0.0000
vn 1.0000 -0.0000 -0.0000
vn -0.0000 0.9907 0.1358
vn -0.0000 0.9931 -0.1170
vn -0.0000 -0.8814 0.4725
vn -0.0000 -0.7347 0.6784
vn -0.0000 0.4353 -0.9003
vn -0.0000 0.1956 -0.9807
vn -0.0000 0.1770 0.9842
vn -0.0000 0.4182 0.9084
vn -0.0000 -0.7217 -0.6922
vn -0.0000 -0.8722 -0.4891
vt 0.000000 0.000000
s 0
f 9/1/1 5/1/1 3/1/1
f 15/1/2 19/1/2 12/1/2
f 6/1/3 15/1/3 5/1/3
f 3/1/4 11/1/4 2/1/4
f 10/1/5 19/1/5 9/1/5
f 7/1/6 16/1/6 6/1/6
f 4/1/7 13/1/7 3/1/7
f 1/1/8 20/1/8 10/1/8
f 7/1/9 18/1/9 17/1/9
f 5/1/10 14/1/10 4/1/10
f 2/1/11 12/1/11 1/1/11
f 9/1/12 18/1/12 8/1/12
f 3/1/1 2/1/1 1/1/1
f 1/1/1 10/1/1 9/1/1
f 9/1/1 8/1/1 7/1/1
f 7/1/1 6/1/1 5/1/1
f 5/1/1 4/1/1 3/1/1
f 3/1/1 1/1/1 9/1/1
f 9/1/1 7/1/1 5/1/1
f 12/1/2 11/1/2 13/1/2
f 13/1/2 14/1/2 15/1/2
f 15/1/2 16/1/2 17/1/2
f 17/1/2 18/1/2 19/1/2
f 19/1/2 20/1/2 12/1/2
f 12/1/2 13/1/2 15/1/2
f 15/1/2 17/1/2 19/1/2
f 6/1/3 16/1/3 15/1/3
f 3/1/4 13/1/4 11/1/4
f 10/1/5 20/1/5 19/1/5
f 7/1/6 17/1/6 16/1/6
f 4/1/7 14/1/7 13/1/7
f 1/1/8 12/1/8 20/1/8
f 7/1/9 8/1/9 18/1/9
f 5/1/10 15/1/10 14/1/10
f 2/1/11 11/1/11 12/1/11
f 9/1/12 19/1/12 18/1/12
