# Blender 4.1.1
# www.blender.org
mtllib timer_needle.mtl
o 円柱
v 0.000000 -0.029316 -0.023194
v 0.000000 0.621807 -0.023194
v 0.004187 -0.029316 -0.022748
v 0.004187 0.621807 -0.022748
v 0.008212 -0.029316 -0.021428
v 0.008212 0.621807 -0.021428
v 0.011923 -0.029316 -0.019285
v 0.011923 0.621807 -0.019285
v 0.015175 -0.029316 -0.016400
v 0.015175 0.621807 -0.016400
v 0.017843 -0.029316 -0.012886
v 0.017843 0.621807 -0.012886
v 0.019827 -0.029316 -0.008876
v 0.019827 0.621807 -0.008876
v 0.021048 -0.029316 -0.004525
v 0.021048 0.621807 -0.004525
v 0.021460 -0.029316 0.000000
v 0.021460 0.621807 0.000000
v 0.021048 -0.029316 0.004525
v 0.021048 0.621807 0.004525
v 0.019827 -0.029316 0.008876
v 0.019827 0.621807 0.008876
v 0.017843 -0.029316 0.012886
v 0.017843 0.621807 0.012886
v 0.015175 -0.029316 0.016400
v 0.015175 0.621807 0.016400
v 0.011923 -0.029316 0.019285
v 0.011923 0.621807 0.019285
v 0.008212 -0.029316 0.021428
v 0.008212 0.621807 0.021428
v 0.004187 -0.029316 0.022748
v 0.004187 0.621807 0.022748
v 0.000000 -0.029316 0.023194
v 0.000000 0.621807 0.023194
v -0.004187 -0.029316 0.022748
v -0.004187 0.621807 0.022748
v -0.008212 -0.029316 0.021428
v -0.008212 0.621807 0.021428
v -0.011923 -0.029316 0.019285
v -0.011923 0.621807 0.019285
v -0.015175 -0.029316 0.016400
v -0.015175 0.621807 0.016400
v -0.017843 -0.029316 0.012886
v -0.017843 0.621807 0.012886
v -0.019827 -0.029316 0.008876
v -0.019827 0.621807 0.008876
v -0.021048 -0.029316 0.004525
v -0.021048 0.621807 0.004525
v -0.021460 -0.029316 0.000000
v -0.021460 0.621807 0.000000
v -0.021048 -0.029316 -0.004525
v -0.021048 0.621807 -0.004525
v -0.019827 -0.029316 -0.008876
v -0.019827 0.621807 -0.008876
v -0.017843 -0.029316 -0.012886
v -0.017843 0.621807 -0.012886
v -0.015175 -0.029316 -0.016400
v -0.015175 0.621807 -0.016400
v -0.011923 -0.029316 -0.019285
v -0.011923 0.621807 -0.019285
v -0.008212 -0.029316 -0.021428
v -0.008212 0.621807 -0.021428
v -0.004187 -0.029316 -0.022748
v -0.004187 0.621807 -0.022748
v -0.070614 0.627588 0.024781
v 0.000000 0.698202 0.024781
v -0.070614 0.627588 -0.024781
v 0.000000 0.698202 -0.024781
v 0.000000 0.556974 0.024781
v 0.070614 0.627588 0.024781
v 0.000000 0.556974 -0.024781
v 0.070614 0.627588 -0.024781
v -0.135184 0.563018 -0.024781
v -0.135184 0.563018 0.024781
v 0.152136 0.553071 -0.024781
v 0.152136 0.553071 0.024781
vn 0.1058 -0.0000 -0.9944
vn 0.3115 -0.0000 -0.9502
vn 0.5002 -0.0000 -0.8659
vn 0.6636 -0.0000 -0.7481
vn 0.7964 -0.0000 -0.6047
vn 0.8964 -0.0000 -0.4433
vn 0.9628 -0.0000 -0.2702
vn 0.9959 -0.0000 -0.0908
vn 0.9959 -0.0000 0.0908
vn 0.9628 -0.0000 0.2702
vn 0.8964 -0.0000 0.4433
vn 0.7964 -0.0000 0.6047
vn 0.6636 -0.0000 0.7481
vn 0.5002 -0.0000 0.8659
vn 0.3115 -0.0000 0.9502
vn 0.1058 -0.0000 0.9944
vn -0.1058 -0.0000 0.9944
vn -0.3115 -0.0000 0.9502
vn -0.5002 -0.0000 0.8659
vn -0.6636 -0.0000 0.7481
vn -0.7964 -0.0000 0.6047
vn -0.8964 -0.0000 0.4433
vn -0.9628 -0.0000 0.2702
vn -0.9959 -0.0000 0.0908
vn -0.9959 -0.0000 -0.0908
vn -0.9628 -0.0000 -0.2702
vn -0.8964 -0.0000 -0.4433
vn -0.7964 -0.0000 -0.6047
vn -0.6636 -0.0000 -0.7481
vn -0.5002 -0.0000 -0.8659
vn -0.0000 1.0000 -0.0000
vn -0.3115 -0.0000 -0.9502
vn -0.1058 -0.0000 -0.9944
vn -0.0000 -1.0000 -0.0000
vn -0.7071 0.7071 -0.0000
vn -0.0000 -0.0000 -1.0000
vn -0.0000 -0.0000 1.0000
vn 0.7071 0.7071 -0.0000
vn -0.0256 -0.9997 -0.0000
vn 0.6747 0.7381 -0.0000
vn -0.0447 -0.9990 -0.0000
vt 0.775059 0.994190
vt 0.768668 0.005810
vt 0.775059 0.005810
vt 0.768668 0.994190
vt 0.762237 0.005810
vt 0.762237 0.994190
vt 0.755733 0.005810
vt 0.755733 0.994190
vt 0.749134 0.005810
vt 0.749134 0.994190
vt 0.742435 0.005810
vt 0.742435 0.994190
vt 0.735645 0.005810
vt 0.735645 0.994190
vt 0.728785 0.005810
vt 0.728785 0.994190
vt 0.721888 0.005810
vt 0.721888 0.994190
vt 0.714991 0.005810
vt 0.714991 0.994190
vt 0.708131 0.005810
vt 0.708131 0.994190
vt 0.701341 0.005810
vt 0.701341 0.994190
vt 0.694642 0.005810
vt 0.694642 0.994190
vt 0.688043 0.005810
vt 0.688043 0.994190
vt 0.681539 0.005810
vt 0.681539 0.994190
vt 0.675108 0.005810
vt 0.675108 0.994190
vt 0.668717 0.005810
vt 0.668717 0.994190
vt 0.662326 0.005810
vt 0.662326 0.994190
vt 0.655895 0.005810
vt 0.655895 0.994190
vt 0.649391 0.005810
vt 0.649391 0.994190
vt 0.642793 0.005810
vt 0.642793 0.994190
vt 0.636094 0.005810
vt 0.636094 0.994190
vt 0.629303 0.005810
vt 0.629303 0.994190
vt 0.622443 0.005810
vt 0.622443 0.994190
vt 0.615546 0.005810
vt 0.615546 0.994190
vt 0.608649 0.005810
vt 0.608649 0.994190
vt 0.601789 0.005810
vt 0.601789 0.994190
vt 0.594999 0.005810
vt 0.594999 0.994190
vt 0.588300 0.005810
vt 0.588300 0.994190
vt 0.581702 0.005810
vt 0.581702 0.994190
vt 0.575197 0.005810
vt 0.094074 0.618939
vt 0.099387 0.615026
vt 0.139952 0.623120
vt 0.575197 0.994190
vt 0.568766 0.005810
vt 0.568766 0.994190
vt 0.562375 0.005810
vt 0.022885 0.615026
vt 0.028789 0.612297
vt 0.058931 0.618311
vt 0.550755 0.332130
vt 0.446762 0.171301
vt 0.531359 0.161675
vt 0.295703 0.361152
vt 0.276308 0.190697
vt 0.183294 0.372645
vt 0.032629 0.168342
vt 0.210213 0.195321
vt 0.318861 0.587647
vt 0.241494 0.276372
vt 0.057196 0.005810
vt 0.429027 0.015436
vt 0.513623 0.005810
vt 0.242256 0.274917
vt 0.263684 0.010239
vt 0.105291 0.612297
vt 0.111558 0.610857
vt 0.117949 0.610760
vt 0.124216 0.612010
vt 0.130120 0.614560
vt 0.135434 0.618311
vt 0.143502 0.628800
vt 0.145948 0.635135
vt 0.089555 0.623884
vt 0.147195 0.641881
vt 0.083559 0.636082
vt 0.147195 0.648778
vt 0.082312 0.642865
vt 0.145948 0.655561
vt 0.082312 0.649762
vt 0.143503 0.661970
vt 0.083559 0.656508
vt 0.139952 0.667759
vt 0.135434 0.672704
vt 0.086005 0.662843
vt 0.130120 0.676617
vt 0.089555 0.668524
vt 0.124216 0.679346
vt 0.094073 0.673332
vt 0.117949 0.680786
vt 0.111558 0.680883
vt 0.105291 0.679633
vt 0.099387 0.677083
vt 0.086005 0.629673
vt 0.562375 0.994190
vt 0.035056 0.610857
vt 0.041446 0.610760
vt 0.047714 0.612010
vt 0.053618 0.614560
vt 0.063450 0.623120
vt 0.017571 0.618939
vt 0.067000 0.628800
vt 0.013053 0.623884
vt 0.069446 0.635135
vt 0.070692 0.641881
vt 0.009502 0.629673
vt 0.070692 0.648778
vt 0.005810 0.642865
vt 0.069446 0.655561
vt 0.005810 0.649762
vt 0.067000 0.661970
vt 0.063450 0.667759
vt 0.007057 0.656508
vt 0.058931 0.672704
vt 0.013053 0.668523
vt 0.053618 0.676617
vt 0.017571 0.673332
vt 0.047714 0.679346
vt 0.041446 0.680786
vt 0.022885 0.677083
vt 0.035056 0.680883
vt 0.028788 0.679633
vt 0.009502 0.662843
vt 0.007057 0.636082
vt 0.466158 0.341756
vt 0.005810 0.345826
vt 0.206452 0.599140
vt 0.197589 0.014863
s 0
usemtl マテリアル.001
f 2/1/1 3/2/1 1/3/1
f 4/4/2 5/5/2 3/2/2
f 6/6/3 7/7/3 5/5/3
f 8/8/4 9/9/4 7/7/4
f 10/10/5 11/11/5 9/9/5
f 12/12/6 13/13/6 11/11/6
f 14/14/7 15/15/7 13/13/7
f 16/16/8 17/17/8 15/15/8
f 18/18/9 19/19/9 17/17/9
f 20/20/10 21/21/10 19/19/10
f 22/22/11 23/23/11 21/21/11
f 24/24/12 25/25/12 23/23/12
f 26/26/13 27/27/13 25/25/13
f 28/28/14 29/29/14 27/27/14
f 30/30/15 31/31/15 29/29/15
f 32/32/16 33/33/16 31/31/16
f 34/34/17 35/35/17 33/33/17
f 36/36/18 37/37/18 35/35/18
f 38/38/19 39/39/19 37/37/19
f 40/40/20 41/41/20 39/39/20
f 42/42/21 43/43/21 41/41/21
f 44/44/22 45/45/22 43/43/22
f 46/46/23 47/47/23 45/45/23
f 48/48/24 49/49/24 47/47/24
f 50/50/25 51/51/25 49/49/25
f 52/52/26 53/53/26 51/51/26
f 54/54/27 55/55/27 53/53/27
f 56/56/28 57/57/28 55/55/28
f 58/58/29 59/59/29 57/57/29
f 60/60/30 61/61/30 59/59/30
f 10/62/31 8/63/31 58/64/31
f 62/65/32 63/66/32 61/61/32
f 64/67/33 1/68/33 63/66/33
f 59/69/34 61/70/34 7/71/34
f 66/72/35 67/73/35 65/74/35
f 67/73/36 72/75/36 71/76/36
f 70/77/37 65/78/37 69/79/37
f 68/80/38 70/77/38 72/75/38
f 71/76/39 76/81/39 69/79/39
f 69/79/37 65/78/37 74/82/37
f 67/73/36 71/76/36 73/83/36
f 67/73/35 74/84/35 65/74/35
f 70/77/40 75/85/40 72/75/40
f 71/76/36 72/75/36 75/85/36
f 70/77/37 69/79/37 76/81/37
f 69/79/41 73/86/41 71/76/41
f 2/1/1 4/4/1 3/2/1
f 4/4/2 6/6/2 5/5/2
f 6/6/3 8/8/3 7/7/3
f 8/8/4 10/10/4 9/9/4
f 10/10/5 12/12/5 11/11/5
f 12/12/6 14/14/6 13/13/6
f 14/14/7 16/16/7 15/15/7
f 16/16/8 18/18/8 17/17/8
f 18/18/9 20/20/9 19/19/9
f 20/20/10 22/22/10 21/21/10
f 22/22/11 24/24/11 23/23/11
f 24/24/12 26/26/12 25/25/12
f 26/26/13 28/28/13 27/27/13
f 28/28/14 30/30/14 29/29/14
f 30/30/15 32/32/15 31/31/15
f 32/32/16 34/34/16 33/33/16
f 34/34/17 36/36/17 35/35/17
f 36/36/18 38/38/18 37/37/18
f 38/38/19 40/40/19 39/39/19
f 40/40/20 42/42/20 41/41/20
f 42/42/21 44/44/21 43/43/21
f 44/44/22 46/46/22 45/45/22
f 46/46/23 48/48/23 47/47/23
f 48/48/24 50/50/24 49/49/24
f 50/50/25 52/52/25 51/51/25
f 52/52/26 54/54/26 53/53/26
f 54/54/27 56/56/27 55/55/27
f 56/56/28 58/58/28 57/57/28
f 58/58/29 60/60/29 59/59/29
f 60/60/30 62/65/30 61/61/30
f 6/87/31 4/88/31 2/89/31
f 2/89/31 64/90/31 6/87/31
f 64/90/31 62/91/31 6/87/31
f 62/91/31 60/92/31 6/87/31
f 60/92/31 58/64/31 8/63/31
f 6/87/31 60/92/31 8/63/31
f 58/64/31 56/93/31 10/62/31
f 56/93/31 54/94/31 12/95/31
f 10/62/31 56/93/31 12/95/31
f 54/94/31 52/96/31 16/97/31
f 52/96/31 50/98/31 18/99/31
f 50/98/31 48/100/31 20/101/31
f 48/100/31 46/102/31 22/103/31
f 46/102/31 44/104/31 22/103/31
f 44/104/31 42/105/31 24/106/31
f 22/103/31 44/104/31 24/106/31
f 42/105/31 40/107/31 26/108/31
f 40/107/31 38/109/31 28/110/31
f 26/108/31 40/107/31 28/110/31
f 38/109/31 36/111/31 34/112/31
f 34/112/31 32/113/31 38/109/31
f 32/113/31 30/114/31 38/109/31
f 30/114/31 28/110/31 38/109/31
f 26/108/31 24/106/31 42/105/31
f 22/103/31 20/101/31 48/100/31
f 20/101/31 18/99/31 50/98/31
f 18/99/31 16/97/31 52/96/31
f 16/97/31 14/115/31 54/94/31
f 14/115/31 12/95/31 54/94/31
f 62/65/32 64/67/32 63/66/32
f 64/67/33 2/116/33 1/68/33
f 63/117/34 1/118/34 3/119/34
f 3/119/34 5/120/34 63/117/34
f 5/120/34 7/71/34 61/70/34
f 63/117/34 5/120/34 61/70/34
f 7/71/34 9/121/34 57/122/34
f 9/121/34 11/123/34 55/124/34
f 11/123/34 13/125/34 55/124/34
f 13/125/34 15/126/34 53/127/34
f 55/124/34 13/125/34 53/127/34
f 15/126/34 17/128/34 49/129/34
f 17/128/34 19/130/34 47/131/34
f 19/130/34 21/132/34 47/131/34
f 21/132/34 23/133/34 45/134/34
f 47/131/34 21/132/34 45/134/34
f 23/133/34 25/135/34 41/136/34
f 25/135/34 27/137/34 39/138/34
f 27/137/34 29/139/34 39/138/34
f 29/139/34 31/140/34 37/141/34
f 39/138/34 29/139/34 37/141/34
f 31/140/34 33/142/34 35/143/34
f 35/143/34 37/141/34 31/140/34
f 39/138/34 41/136/34 25/135/34
f 41/136/34 43/144/34 23/133/34
f 43/144/34 45/134/34 23/133/34
f 47/131/34 49/129/34 17/128/34
f 49/129/34 51/145/34 15/126/34
f 51/145/34 53/127/34 15/126/34
f 55/124/34 57/122/34 9/121/34
f 57/122/34 59/69/34 7/71/34
f 66/72/35 68/146/35 67/73/35
f 67/73/36 68/146/36 72/75/36
f 70/77/37 66/147/37 65/78/37
f 68/80/38 66/148/38 70/77/38
f 71/76/39 75/85/39 76/81/39
f 67/73/35 73/83/35 74/84/35
f 70/77/40 76/81/40 75/85/40
f 69/79/41 74/149/41 73/86/41
