# Blender 4.1.1
# www.blender.org
mtllib 4.mtl
o テキスト
v -0.049039 0.527533 0.050000
v 0.125285 0.527533 0.050000
v 0.125285 0.182796 0.050000
v 0.162757 0.182796 0.050000
v 0.162757 0.092864 0.050000
v 0.125285 0.092864 0.050000
v 0.125285 -0.000000 0.050000
v -0.006354 -0.000000 0.050000
v -0.006354 0.092864 0.050000
v -0.162757 0.092864 0.050000
v -0.162757 0.182796 0.050000
v -0.064353 0.182796 0.050000
v -0.006354 0.182796 0.050000
v -0.006354 0.407299 0.050000
v -0.049039 0.527533 -0.050000
v 0.125285 0.527533 -0.050000
v 0.125285 0.182796 -0.050000
v 0.162757 0.182796 -0.050000
v 0.162757 0.092864 -0.050000
v 0.125285 0.092864 -0.050000
v 0.125285 0.000000 -0.050000
v -0.006354 0.000000 -0.050000
v -0.006354 0.092864 -0.050000
v -0.162757 0.092864 -0.050000
v -0.162757 0.182796 -0.050000
v -0.064353 0.182796 -0.050000
v -0.006354 0.182796 -0.050000
v -0.006354 0.407299 -0.050000
v -0.049039 0.527533 -0.050000
v -0.049039 0.527533 0.050000
v 0.125285 0.527533 -0.050000
v 0.125285 0.527533 0.050000
v 0.125285 0.182796 -0.050000
v 0.125285 0.182796 0.050000
v 0.162757 0.182796 -0.050000
v 0.162757 0.182796 0.050000
v 0.162757 0.092864 -0.050000
v 0.162757 0.092864 0.050000
v 0.125285 0.092864 -0.050000
v 0.125285 0.092864 0.050000
v 0.125285 0.000000 -0.050000
v 0.125285 -0.000000 0.050000
v -0.006354 0.000000 -0.050000
v -0.006354 -0.000000 0.050000
v -0.006354 0.092864 -0.050000
v -0.006354 0.092864 0.050000
v -0.162757 0.092864 -0.050000
v -0.162757 0.092864 0.050000
v -0.162757 0.182796 -0.050000
v -0.162757 0.182796 0.050000
v -0.064353 0.182796 -0.050000
v -0.064353 0.182796 0.050000
v -0.006354 0.182796 -0.050000
v -0.006354 0.182796 0.050000
v -0.006354 0.407299 -0.050000
v -0.006354 0.407299 0.050000
vn -0.0000 -0.0000 1.0000
vn -0.0000 -0.0000 -1.0000
vn 0.7071 0.7071 -0.0000
vn -0.5860 0.8103 -0.0000
vn 0.7071 -0.7071 -0.0000
vn -0.7071 -0.7071 -0.0000
vn -0.9873 0.1586 -0.0000
vn -0.7071 0.7071 -0.0000
vn 0.7906 0.6123 -0.0000
vn -0.1259 -0.9920 -0.0000
vn -0.1263 -0.9920 -0.0000
vt 0.769231 0.000000
vt 1.000000 0.000000
vt 0.000000 0.000000
vt 0.076923 0.000000
vt 0.153846 0.000000
vt 0.846154 0.000000
vt 0.923077 0.000000
vt 0.692308 0.000000
vt 0.230769 0.000000
vt 0.307692 0.000000
vt 0.615385 0.000000
vt 0.538462 0.000000
vt 0.384615 0.000000
vt 0.461538 0.000000
vt 0.090909 1.000000
vt 0.000000 1.000000
vt 0.181818 1.000000
vt 0.090909 0.000000
vt 0.272727 1.000000
vt 0.181818 0.000000
vt 0.363636 1.000000
vt 0.272727 0.000000
vt 0.454545 1.000000
vt 0.363636 0.000000
vt 0.545455 1.000000
vt 0.454545 0.000000
vt 0.636364 1.000000
vt 0.545455 0.000000
vt 0.727273 1.000000
vt 0.636364 0.000000
vt 0.818182 1.000000
vt 0.727273 0.000000
vt 0.909091 1.000000
vt 0.818182 0.000000
vt 1.000000 1.000000
vt 0.909091 0.000000
vt 0.333333 1.000000
vt 0.666667 1.000000
vt 0.333333 0.000000
vt 0.666667 0.000000
s 0
usemtl マテリアル
f 11/1/1 14/2/1 1/3/1
f 14/2/1 2/4/1 1/3/1
f 14/2/1 3/5/1 2/4/1
f 11/1/1 12/6/1 14/2/1
f 13/7/1 3/5/1 14/2/1
f 10/8/1 12/6/1 11/1/1
f 10/8/1 13/7/1 12/6/1
f 10/8/1 3/5/1 13/7/1
f 10/8/1 4/9/1 3/5/1
f 10/8/1 5/10/1 4/9/1
f 9/11/1 5/10/1 10/8/1
f 8/12/1 6/13/1 9/11/1
f 6/13/1 5/10/1 9/11/1
f 8/12/1 7/14/1 6/13/1
f 25/1/2 15/3/2 28/2/2
f 28/2/2 15/3/2 16/4/2
f 28/2/2 16/4/2 17/5/2
f 25/1/2 28/2/2 26/6/2
f 27/7/2 28/2/2 17/5/2
f 24/8/2 25/1/2 26/6/2
f 24/8/2 26/6/2 27/7/2
f 24/8/2 27/7/2 17/5/2
f 24/8/2 17/5/2 18/9/2
f 24/8/2 18/9/2 19/10/2
f 23/11/1 24/8/1 19/10/1
f 22/12/2 23/11/2 20/13/2
f 20/13/1 23/11/1 19/10/1
f 22/12/2 20/13/2 21/14/2
s 1
f 32/15/3 29/3/4 30/16/4
f 34/17/3 31/18/3 32/15/3
f 36/19/3 33/20/3 34/17/3
f 38/21/5 35/22/3 36/19/3
f 40/23/5 37/24/5 38/21/5
f 42/25/5 39/26/5 40/23/5
f 44/27/6 41/28/5 42/25/5
f 46/29/6 43/30/6 44/27/6
f 48/31/6 45/32/6 46/29/6
f 50/33/7 47/34/6 48/31/6
f 30/35/4 49/36/7 50/33/7
f 54/37/8 51/3/9 52/16/9
f 56/38/10 53/39/8 54/37/8
f 52/35/9 55/40/11 56/38/10
f 32/15/3 31/18/3 29/3/4
f 34/17/3 33/20/3 31/18/3
f 36/19/3 35/22/3 33/20/3
f 38/21/5 37/24/5 35/22/3
f 40/23/5 39/26/5 37/24/5
f 42/25/5 41/28/5 39/26/5
f 44/27/6 43/30/6 41/28/5
f 46/29/6 45/32/6 43/30/6
f 48/31/6 47/34/6 45/32/6
f 50/33/7 49/36/7 47/34/6
f 30/35/4 29/2/4 49/36/7
f 54/37/8 53/39/8 51/3/9
f 56/38/10 55/40/11 53/39/8
f 52/35/9 51/2/9 55/40/11
